<svg width="69" height="49" viewBox="0 0 69 49" fill="none" xmlns="http://www.w3.org/2000/svg">
<path d="M67.2075 8.43971C66.4275 5.50971 64.7175 3.02971 61.7875 2.24971C56.4775 0.829707 34.6875 0.699707 34.6875 0.699707C34.6875 0.699707 12.8975 0.829707 7.5875 2.24971C4.6575 3.02971 2.9575 5.50971 2.1675 8.43971C0.7475 13.7497 0.6875 24.6997 0.6875 24.6997C0.6875 24.6997 0.7475 35.6497 2.1675 40.9597C2.9475 43.8897 4.6575 46.3697 7.5875 47.1497C12.8975 48.5697 34.6875 48.6997 34.6875 48.6997C34.6875 48.6997 56.4775 48.5697 61.7875 47.1497C64.7175 46.3697 66.4275 43.8897 67.2075 40.9597C68.6275 35.6497 68.6875 24.6997 68.6875 24.6997C68.6875 24.6997 68.6275 13.7497 67.2075 8.43971Z" fill="#FF0000"/>
<path d="M45.6875 24.6997L27.6875 14.6997V34.6997" fill="white"/>
</svg>
