<svg width="16" height="16" viewBox="0 0 16 16" fill="none" xmlns="http://www.w3.org/2000/svg">
<path d="M12.6641 7.33317H8.66406V3.33317C8.66406 3.15636 8.59382 2.98679 8.4688 2.86177C8.34378 2.73674 8.17421 2.6665 7.9974 2.6665C7.82058 2.6665 7.65102 2.73674 7.52599 2.86177C7.40097 2.98679 7.33073 3.15636 7.33073 3.33317V7.33317H3.33073C3.15392 7.33317 2.98435 7.40341 2.85932 7.52843C2.7343 7.65346 2.66406 7.82303 2.66406 7.99984C2.66406 8.17665 2.7343 8.34622 2.85932 8.47124C2.98435 8.59627 3.15392 8.6665 3.33073 8.6665H7.33073V12.6665C7.33073 12.8433 7.40097 13.0129 7.52599 13.1379C7.65102 13.2629 7.82058 13.3332 7.9974 13.3332C8.17421 13.3332 8.34378 13.2629 8.4688 13.1379C8.59382 13.0129 8.66406 12.8433 8.66406 12.6665V8.6665H12.6641C12.8409 8.6665 13.0104 8.59627 13.1355 8.47124C13.2605 8.34622 13.3307 8.17665 13.3307 7.99984C13.3307 7.82303 13.2605 7.65346 13.1355 7.52843C13.0104 7.40341 12.8409 7.33317 12.6641 7.33317Z" fill="#222930"/>
</svg>
