<svg width="73" height="18" viewBox="0 0 73 18" fill="none" xmlns="http://www.w3.org/2000/svg">
<path d="M13.1554 1.80889C11.2293 1.8335 7.21082 1.9135 5.96159 2.2335C5.04467 2.47966 4.36775 3.21812 4.12159 4.07966C3.69698 5.7412 3.70313 9.1935 3.70313 9.1935C3.70313 9.1935 3.69698 12.6458 4.12159 14.3073C4.36159 15.2304 5.10005 15.9073 5.96159 16.1535C7.61698 16.5843 14.2077 16.572 14.2077 16.572C14.2077 16.572 20.7924 16.5781 22.4539 16.1535C23.377 15.9073 24.0477 15.1689 24.2939 14.3073C24.7185 12.6458 24.7124 9.1935 24.7124 9.1935C24.7124 9.1935 24.7801 5.7412 24.2939 4.07966C24.0477 3.15658 23.3154 2.47966 22.4539 2.2335C20.8047 1.80273 14.2139 1.80889 14.2139 1.80889C14.2139 1.80889 13.8016 1.80273 13.1616 1.80889H13.1554ZM57.5924 2.36273V15.4581H59.3031L59.4939 14.615H59.5493C59.7339 14.9227 59.9862 15.1566 60.2939 15.3412C60.6016 15.5258 60.9585 15.5873 61.3277 15.5873C62.0047 15.5873 62.5524 15.2858 62.8601 14.6089C63.1677 13.932 63.3585 12.9473 63.3585 11.5935V10.1166C63.3585 9.13196 63.2908 8.33196 63.1677 7.71658C63.0447 7.16889 62.8601 6.73812 62.5524 6.43043C62.2447 6.18427 61.8754 6.06735 61.3831 6.06735C61.0201 6.06735 60.657 6.18427 60.3493 6.36889C60.0477 6.5535 59.7277 6.8612 59.6047 7.23043V2.36889H57.5862L57.5924 2.36273ZM26.8293 2.84273L29.2293 11.3966L29.3401 15.5258H31.377V11.3966L33.7585 2.84273H31.6847L30.8231 6.72581C30.577 7.88889 30.3862 8.68889 30.3247 9.1812H30.2693C30.1462 8.50427 29.9554 7.70427 29.7708 6.72581L28.9277 2.84273H26.8354H26.8293ZM45.0385 2.84273V4.51043H47.1308V15.5258H49.1493V4.51043H51.2416C51.2416 4.51043 51.2416 2.84273 51.1862 2.84273H45.0385ZM12.1216 5.9935L17.5985 9.1812L12.1216 12.3135V5.98735V5.9935ZM67.137 6.04889C66.0908 6.04889 65.3585 6.41196 64.9277 7.02735C64.5031 7.63658 64.3185 8.62735 64.3185 10.0427V11.6366C64.3185 12.9904 64.5031 14.0366 64.9277 14.652C65.3585 15.3289 66.0354 15.6304 67.0816 15.6304C67.9431 15.6304 68.5462 15.4458 69.0385 15.015C69.4693 14.5843 69.7093 13.975 69.7093 13.1135V12.8058L67.9247 12.6766C67.9247 13.292 67.8754 13.6612 67.7524 13.9073C67.6908 14.1535 67.4447 14.2889 67.137 14.2889C66.9524 14.2889 66.7616 14.2212 66.6385 14.0981C66.5154 13.9135 66.4539 13.735 66.3924 13.4274C66.3308 13.1197 66.337 12.6827 66.337 12.0673V11.5873L69.8508 11.532V9.91966C69.8508 8.93504 69.7893 8.20889 69.6047 7.65504C69.4816 7.10735 69.1677 6.67658 68.7985 6.43043C68.3677 6.18427 67.8877 6.06735 67.1493 6.06735L67.137 6.04889ZM36.0662 6.10427C35.3954 6.10427 34.8293 6.21504 34.3985 6.52273C33.9677 6.76889 33.6601 7.21196 33.4816 7.82735C33.297 8.44273 33.1739 9.22427 33.1739 10.2089V11.5689C33.1739 12.492 33.2354 13.2797 33.4201 13.895C33.5431 14.4489 33.8508 14.892 34.2816 15.1997C34.7062 15.5073 35.3339 15.6181 36.0108 15.6797C36.7431 15.6797 37.2908 15.5073 37.7216 15.2612C38.1462 15.015 38.3924 14.5904 38.6385 13.975C38.8785 13.3597 38.9401 12.5597 38.9401 11.575V10.215C38.9401 9.23043 38.817 8.44889 38.6385 7.8335C38.4539 7.28581 38.1462 6.83658 37.7216 6.52889C37.2908 6.2212 36.7493 6.11043 36.0724 6.11043L36.0662 6.10427ZM43.5616 6.15966V13.4827C43.5001 13.6673 43.3831 13.7781 43.1985 13.9012C43.0754 14.0243 42.8847 14.092 42.7001 14.092C42.5154 14.092 42.3431 14.0304 42.2816 13.8458C42.2201 13.6612 42.1708 13.415 42.1708 12.9843V6.2212H40.0785V13.1197C40.0785 13.9812 40.1893 14.5904 40.497 15.0212C40.7985 15.452 41.2416 15.6366 41.857 15.6366C42.7185 15.6366 43.3831 15.212 43.8139 14.3504H43.8693L44.0601 15.4458H45.6539V6.2212C45.6539 6.2212 43.5616 6.2212 43.5616 6.16581V6.15966ZM54.2139 6.15966V13.4827C54.1524 13.6673 54.0354 13.7781 53.8508 13.9012C53.7277 14.0243 53.537 14.092 53.3524 14.092C53.1677 14.092 52.9954 14.0304 52.9339 13.8458C52.8724 13.6612 52.8047 13.415 52.8047 12.9843V6.2212H50.7124V13.1197C50.7124 13.9812 50.8416 14.5904 51.1493 15.0212C51.457 15.452 51.8754 15.6366 52.4908 15.6366C53.3462 15.6366 54.0354 15.212 54.4662 14.3504H54.5216L54.6939 15.4458H56.3062V6.2212C56.3062 6.2212 54.2139 6.2212 54.2139 6.16581V6.15966ZM67.0754 7.44581C67.3216 7.44581 67.4324 7.5135 67.5554 7.63658C67.6785 7.8212 67.7401 7.99966 67.8016 8.30735C67.8631 8.61504 67.857 9.05196 67.857 9.66735V10.3381H66.3185V9.66735C66.3185 9.05196 66.3185 8.61504 66.3739 8.30735C66.3739 8.0612 66.4416 7.81504 66.5647 7.69196C66.6877 7.50735 66.8785 7.44581 67.0631 7.44581H67.0754ZM36.0047 7.51966C36.3124 7.51966 36.497 7.63043 36.6201 7.93812C36.737 8.24581 36.7924 8.73812 36.7924 9.41504V12.295C36.7924 12.972 36.7431 13.4643 36.6201 13.772C36.497 14.0797 36.3124 14.1904 36.0047 14.1904C35.697 14.1904 35.5185 14.0797 35.3954 13.772C35.2724 13.4643 35.2047 12.972 35.2047 12.295V9.41504C35.2047 8.73812 35.2724 8.24581 35.3954 7.93812C35.5185 7.63043 35.697 7.51966 36.0047 7.51966ZM60.4231 7.57504C60.6077 7.57504 60.7985 7.63658 60.9216 7.8212C61.0447 8.00581 61.0877 8.2335 61.1493 8.66427C61.2108 9.0335 61.2231 9.5935 61.2231 10.332L61.2785 11.5012C61.2785 12.1781 61.2785 12.7258 61.2231 13.095C61.1616 13.4643 61.1062 13.7597 60.9216 13.8827C60.7985 14.0673 60.6139 14.1289 60.3677 14.1289C60.1831 14.1289 60.0539 14.0797 59.8693 14.0181C59.7462 13.9566 59.6293 13.8397 59.5062 13.655V8.42427C59.5677 8.17812 59.6847 7.9935 59.8693 7.80889C60.0539 7.62427 60.2385 7.56273 60.4231 7.56273V7.57504Z" fill="white" stroke="black" stroke-opacity="0.15" stroke-width="1.23077"/>
<path d="M13.1554 1.80889C11.2293 1.8335 7.21082 1.9135 5.96159 2.2335C5.04467 2.47966 4.36775 3.21812 4.12159 4.07966C3.69698 5.7412 3.70313 9.1935 3.70313 9.1935C3.70313 9.1935 3.69698 12.6458 4.12159 14.3073C4.36159 15.2304 5.10005 15.9073 5.96159 16.1535C7.61698 16.5843 14.2077 16.572 14.2077 16.572C14.2077 16.572 20.7924 16.5781 22.4539 16.1535C23.377 15.9073 24.0477 15.1689 24.2939 14.3073C24.7185 12.6458 24.7124 9.1935 24.7124 9.1935C24.7124 9.1935 24.7801 5.7412 24.2939 4.07966C24.0477 3.15658 23.3154 2.47966 22.4539 2.2335C20.8047 1.80273 14.2139 1.80889 14.2139 1.80889C14.2139 1.80889 13.8016 1.80273 13.1616 1.80889H13.1554ZM57.5924 2.36273V15.4581H59.3031L59.4939 14.615H59.5493C59.7339 14.9227 59.9862 15.1566 60.2939 15.3412C60.6016 15.5258 60.9585 15.5873 61.3277 15.5873C62.0047 15.5873 62.5524 15.2858 62.8601 14.6089C63.1677 13.932 63.3585 12.9473 63.3585 11.5935V10.1166C63.3585 9.13196 63.2908 8.33196 63.1677 7.71658C63.0447 7.16889 62.8601 6.73812 62.5524 6.43043C62.2447 6.18427 61.8754 6.06735 61.3831 6.06735C61.0201 6.06735 60.657 6.18427 60.3493 6.36889C60.0477 6.5535 59.7277 6.8612 59.6047 7.23043V2.36889H57.5862L57.5924 2.36273ZM26.8293 2.84273L29.2293 11.3966L29.3401 15.5258H31.377V11.3966L33.7585 2.84273H31.6847L30.8231 6.72581C30.577 7.88889 30.3862 8.68889 30.3247 9.1812H30.2693C30.1462 8.50427 29.9554 7.70427 29.7708 6.72581L28.9277 2.84273H26.8354H26.8293ZM45.0385 2.84273V4.51043H47.1308V15.5258H49.1493V4.51043H51.2416C51.2416 4.51043 51.2416 2.84273 51.1862 2.84273H45.0385ZM12.1216 5.9935L17.5985 9.1812L12.1216 12.3135V5.98735V5.9935ZM67.137 6.04889C66.0908 6.04889 65.3585 6.41196 64.9277 7.02735C64.5031 7.63658 64.3185 8.62735 64.3185 10.0427V11.6366C64.3185 12.9904 64.5031 14.0366 64.9277 14.652C65.3585 15.3289 66.0354 15.6304 67.0816 15.6304C67.9431 15.6304 68.5462 15.4458 69.0385 15.015C69.4693 14.5843 69.7093 13.975 69.7093 13.1135V12.8058L67.9247 12.6766C67.9247 13.292 67.8754 13.6612 67.7524 13.9073C67.6908 14.1535 67.4447 14.2889 67.137 14.2889C66.9524 14.2889 66.7616 14.2212 66.6385 14.0981C66.5154 13.9135 66.4539 13.735 66.3924 13.4274C66.3308 13.1197 66.337 12.6827 66.337 12.0673V11.5873L69.8508 11.532V9.91966C69.8508 8.93504 69.7893 8.20889 69.6047 7.65504C69.4816 7.10735 69.1677 6.67658 68.7985 6.43043C68.3677 6.18427 67.8877 6.06735 67.1493 6.06735L67.137 6.04889ZM36.0662 6.10427C35.3954 6.10427 34.8293 6.21504 34.3985 6.52273C33.9677 6.76889 33.6601 7.21196 33.4816 7.82735C33.297 8.44273 33.1739 9.22427 33.1739 10.2089V11.5689C33.1739 12.492 33.2354 13.2797 33.4201 13.895C33.5431 14.4489 33.8508 14.892 34.2816 15.1997C34.7062 15.5073 35.3339 15.6181 36.0108 15.6797C36.7431 15.6797 37.2908 15.5073 37.7216 15.2612C38.1462 15.015 38.3924 14.5904 38.6385 13.975C38.8785 13.3597 38.9401 12.5597 38.9401 11.575V10.215C38.9401 9.23043 38.817 8.44889 38.6385 7.8335C38.4539 7.28581 38.1462 6.83658 37.7216 6.52889C37.2908 6.2212 36.7493 6.11043 36.0724 6.11043L36.0662 6.10427ZM43.5616 6.15966V13.4827C43.5001 13.6673 43.3831 13.7781 43.1985 13.9012C43.0754 14.0243 42.8847 14.092 42.7001 14.092C42.5154 14.092 42.3431 14.0304 42.2816 13.8458C42.2201 13.6612 42.1708 13.415 42.1708 12.9843V6.2212H40.0785V13.1197C40.0785 13.9812 40.1893 14.5904 40.497 15.0212C40.7985 15.452 41.2416 15.6366 41.857 15.6366C42.7185 15.6366 43.3831 15.212 43.8139 14.3504H43.8693L44.0601 15.4458H45.6539V6.2212C45.6539 6.2212 43.5616 6.2212 43.5616 6.16581V6.15966ZM54.2139 6.15966V13.4827C54.1524 13.6673 54.0354 13.7781 53.8508 13.9012C53.7277 14.0243 53.537 14.092 53.3524 14.092C53.1677 14.092 52.9954 14.0304 52.9339 13.8458C52.8724 13.6612 52.8047 13.415 52.8047 12.9843V6.2212H50.7124V13.1197C50.7124 13.9812 50.8416 14.5904 51.1493 15.0212C51.457 15.452 51.8754 15.6366 52.4908 15.6366C53.3462 15.6366 54.0354 15.212 54.4662 14.3504H54.5216L54.6939 15.4458H56.3062V6.2212C56.3062 6.2212 54.2139 6.2212 54.2139 6.16581V6.15966ZM67.0754 7.44581C67.3216 7.44581 67.4324 7.5135 67.5554 7.63658C67.6785 7.8212 67.7401 7.99966 67.8016 8.30735C67.8631 8.61504 67.857 9.05196 67.857 9.66735V10.3381H66.3185V9.66735C66.3185 9.05196 66.3185 8.61504 66.3739 8.30735C66.3739 8.0612 66.4416 7.81504 66.5647 7.69196C66.6877 7.50735 66.8785 7.44581 67.0631 7.44581H67.0754ZM36.0047 7.51966C36.3124 7.51966 36.497 7.63043 36.6201 7.93812C36.737 8.24581 36.7924 8.73812 36.7924 9.41504V12.295C36.7924 12.972 36.7431 13.4643 36.6201 13.772C36.497 14.0797 36.3124 14.1904 36.0047 14.1904C35.697 14.1904 35.5185 14.0797 35.3954 13.772C35.2724 13.4643 35.2047 12.972 35.2047 12.295V9.41504C35.2047 8.73812 35.2724 8.24581 35.3954 7.93812C35.5185 7.63043 35.697 7.51966 36.0047 7.51966ZM60.4231 7.57504C60.6077 7.57504 60.7985 7.63658 60.9216 7.8212C61.0447 8.00581 61.0877 8.2335 61.1493 8.66427C61.2108 9.0335 61.2231 9.5935 61.2231 10.332L61.2785 11.5012C61.2785 12.1781 61.2785 12.7258 61.2231 13.095C61.1616 13.4643 61.1062 13.7597 60.9216 13.8827C60.7985 14.0673 60.6139 14.1289 60.3677 14.1289C60.1831 14.1289 60.0539 14.0797 59.8693 14.0181C59.7462 13.9566 59.6293 13.8397 59.5062 13.655V8.42427C59.5677 8.17812 59.6847 7.9935 59.8693 7.80889C60.0539 7.62427 60.2385 7.56273 60.4231 7.56273V7.57504Z" fill="white"/>
</svg>
