<svg width="37" height="37" viewBox="0 0 37 37" fill="none" xmlns="http://www.w3.org/2000/svg">
<path d="M20.8875 14.3897V9.9397L28.6775 17.7297L20.8875 25.5197V20.9597C16.9575 20.8897 12.7875 22.0097 10.0275 24.9597C9.48747 25.3297 8.28747 27.4897 8.80747 25.8497C9.76747 21.5197 12.4875 17.3797 16.6675 15.5797C17.9975 14.9797 19.4275 14.5997 20.8775 14.3897H20.8875Z" fill="white" stroke="black" stroke-opacity="0.15" stroke-width="2"/>
<path d="M20.8875 14.3897V9.9397L28.6775 17.7297L20.8875 25.5197V20.9597C16.9575 20.8897 12.7875 22.0097 10.0275 24.9597C9.48747 25.3297 8.28747 27.4897 8.80747 25.8497C9.76747 21.5197 12.4875 17.3797 16.6675 15.5797C17.9975 14.9797 19.4275 14.5997 20.8775 14.3897H20.8875Z" fill="white"/>
</svg>
