<svg width="34" height="26" viewBox="0 0 34 26" fill="none" xmlns="http://www.w3.org/2000/svg">
<path fill-rule="evenodd" clip-rule="evenodd" d="M3.88588 4.61277C1.74983 6.75119 0.0498965 8.50318 0.108001 8.50599C0.166322 8.5088 1.94423 8.53321 4.0589 8.55999C7.81452 8.60773 7.90114 8.59866 7.7737 8.1768C7.26199 6.48097 7.54927 5.19727 8.67421 4.1529C10.1644 2.76919 12.5039 2.88497 13.981 4.41556C14.1872 4.6294 14.6488 5.26618 15.007 5.83081L15.658 6.85746V3.7911V0.724731H11.7138H7.76938L3.88588 4.61277ZM17.386 3.64076C17.386 5.24458 17.4216 6.55679 17.4653 6.55679C17.5089 6.55679 17.8033 6.16582 18.1196 5.68781C19.2786 3.93647 19.8225 3.51094 21.2492 3.23921C23.0962 2.88735 25.2133 4.33499 25.482 6.13342C25.5645 6.6866 25.5245 7.36248 25.3878 7.72082C25.2571 8.06384 25.1787 8.37358 25.2139 8.40857C25.2681 8.46301 32.2085 8.56107 32.828 8.51636C32.9455 8.50772 31.2942 6.75119 29.1581 4.61277L25.2746 0.724731H21.3302H17.386V3.64076ZM10.2579 5.10828C9.20428 5.64116 8.94573 6.94062 9.6905 7.9608C9.96137 8.33189 10.3284 8.40814 12.2925 8.50081C13.5498 8.56021 14.5786 8.56885 14.5784 8.51981C14.5776 8.36062 13.4405 6.46369 13.0135 5.90878C12.2182 4.87564 11.2652 4.59895 10.2579 5.10828ZM21.1326 5.06076C20.4964 5.24911 19.5495 6.40127 18.7051 8.0148L18.4509 8.50081H20.7297H23.0083L23.4457 7.7988C24.4739 6.14768 23.071 4.48706 21.1326 5.06076ZM7.775 18.2224L15.55 26L15.6094 22.6641C15.642 20.8293 15.642 17.7643 15.6094 15.8527L15.55 12.3774L14.8154 13.0487C14.4112 13.4181 13.5489 14.1216 12.8992 14.6122L11.7181 15.504L11.1751 14.8729L10.6321 14.2415L11.363 13.6959C11.765 13.3956 12.7258 12.5433 13.498 11.8013L14.902 10.4526L7.45099 10.4487L0 10.4448L7.775 18.2224ZM19.2302 11.5384C19.8197 12.14 20.7533 12.9783 21.3049 13.4012L22.3078 14.1704L21.8797 14.896L21.4516 15.6215L20.6608 15.0366C20.226 14.7148 19.3354 13.9721 18.682 13.3863L17.494 12.3212L17.4346 15.8246C17.402 17.7515 17.402 20.8293 17.4346 22.6641L17.494 26L25.269 18.2224L33.044 10.4448H25.601H18.1582L19.2302 11.5384Z" fill="black"/>
</svg>
