<svg width="22" height="17" viewBox="0 0 22 17" fill="none" xmlns="http://www.w3.org/2000/svg">
<path fill-rule="evenodd" clip-rule="evenodd" d="M2.53152 3.0671C1.13996 4.46021 0.0325059 5.60157 0.070359 5.6034C0.108353 5.60523 1.2666 5.62113 2.64423 5.63858C5.09089 5.66968 5.14732 5.66377 5.0643 5.38895C4.73094 4.28417 4.91809 3.44789 5.65095 2.76751C6.62177 1.86608 8.14588 1.9415 9.10811 2.93863C9.2425 3.07794 9.54321 3.49278 9.77652 3.86061L10.2006 4.52944V2.53181V0.53418H7.63113H5.06149L2.53152 3.0671ZM11.3264 2.43387C11.3264 3.4787 11.3496 4.33356 11.378 4.33356C11.4065 4.33356 11.5983 4.07887 11.8043 3.76746C12.5594 2.62652 12.9137 2.3493 13.8431 2.17228C15.0464 1.94305 16.4256 2.88614 16.6006 4.05776C16.6544 4.41814 16.6284 4.85844 16.5393 5.0919C16.4542 5.31536 16.4031 5.51714 16.426 5.53994C16.4613 5.5754 20.9827 5.63929 21.3863 5.61016C21.4629 5.60453 20.3871 4.46021 18.9955 3.0671L16.4656 0.53418H13.8959H11.3264V2.43387ZM6.6827 3.38991C5.99627 3.73706 5.82784 4.58362 6.31303 5.24823C6.48949 5.48999 6.72857 5.53966 8.00812 5.60003C8.82724 5.63872 9.49748 5.64435 9.49734 5.61241C9.49678 5.5087 8.75603 4.27292 8.47783 3.91141C7.95971 3.23836 7.33886 3.0581 6.6827 3.38991ZM13.7671 3.35895C13.3527 3.48166 12.7358 4.23225 12.1858 5.28341L12.0201 5.60003H13.5047H14.9891L15.2741 5.14269C15.9439 4.06704 15.0299 2.98521 13.7671 3.35895ZM5.06514 11.9333L10.1303 17.0002L10.169 14.8269C10.1902 13.6316 10.1902 11.6349 10.169 10.3895L10.1303 8.12549L9.65171 8.56284C9.38842 8.80347 8.82668 9.26179 8.4034 9.58136L7.63395 10.1624L7.28019 9.75121L6.92642 9.33989L7.40261 8.98443C7.66449 8.78884 8.2904 8.23356 8.79347 7.7502L9.70813 6.87155L4.85407 6.86902L0 6.86649L5.06514 11.9333ZM12.5278 7.57894C12.9119 7.97084 13.52 8.51697 13.8794 8.79249L14.5328 9.29359L14.2539 9.76626L13.975 10.2389L13.4598 9.85787C13.1766 9.6482 12.5964 9.16441 12.1707 8.78279L11.3967 8.0889L11.3581 10.3712C11.3368 11.6266 11.3368 13.6316 11.3581 14.8269L11.3967 17.0002L16.4619 11.9333L21.527 6.86649H16.6782H11.8295L12.5278 7.57894Z" fill="white"/>
</svg>
